<?xml version="1.0" standalone="no"?>
<!DOCTYPE svg PUBLIC "-//W3C//DTD SVG 20010904//EN"
 "http://www.w3.org/TR/2001/REC-SVG-20010904/DTD/svg10.dtd">
<svg version="1.0" xmlns="http://www.w3.org/2000/svg"
 width="512.000000pt" height="512.000000pt" viewBox="0 0 512.000000 512.000000"
 preserveAspectRatio="xMidYMid meet">

<g transform="translate(0.000000,512.000000) scale(0.100000,-0.100000)"
fill="#000000" stroke="none">
<path d="M1183 4830 c-12 -5 -29 -20 -39 -35 -14 -21 -15 -30 -4 -56 7 -16 28
-44 46 -62 19 -17 34 -41 34 -52 0 -22 -35 -59 -83 -90 -42 -27 -50 -48 -30
-82 36 -64 -8 -137 -91 -150 -68 -11 -118 -77 -84 -111 17 -17 39 -15 89 8 48
21 87 28 59 10 -8 -5 -50 -21 -92 -35 -127 -43 -207 -132 -208 -230 0 -22 12
-64 26 -95 42 -89 53 -123 113 -365 65 -257 117 -400 220 -603 87 -170 157
-282 273 -437 114 -152 165 -204 308 -319 388 -313 777 -429 1440 -430 196 -1
280 3 363 17 59 9 123 17 142 17 19 0 79 14 132 31 82 26 108 31 165 27 53 -4
77 -1 106 13 20 10 69 23 107 29 101 16 139 37 143 78 6 62 -15 72 -142 72
-79 0 -119 4 -140 15 -26 14 -30 13 -53 -5 -31 -24 -72 -25 -149 -5 -34 9 -78
12 -113 9 -31 -3 -62 -1 -70 5 -16 10 -19 4 47 91 38 51 41 77 8 90 -49 18
-103 -13 -197 -113 l-56 -60 -64 12 c-265 52 -559 191 -749 353 -80 68 -230
241 -324 372 -161 225 -230 498 -266 1061 -14 214 -14 248 0 275 24 44 55 44
188 1 76 -25 140 -28 148 -6 19 49 -109 130 -306 195 -52 17 -119 47 -148 66
-29 19 -66 37 -83 41 -21 4 -34 15 -43 38 -15 36 -35 45 -141 65 -33 7 -75 19
-93 27 -31 15 -33 18 -27 53 9 54 -10 66 -100 62 -40 -1 -85 2 -100 8 -27 10
-27 11 -20 75 3 35 4 74 0 85 -13 40 -89 61 -142 40z m95 -22 c5 -7 12 -22 14
-33 3 -18 -3 -20 -52 -20 -53 0 -55 -1 -52 -25 2 -19 0 -22 -8 -10 -28 42 4
100 54 100 19 0 38 -6 44 -12z m147 -233 c0 -5 -15 -11 -34 -13 -31 -3 -33 -2
-21 13 14 17 55 17 55 0z m49 -105 c55 -21 107 -61 58 -46 -20 7 -22 5 -20
-25 4 -40 -20 -49 -58 -24 -48 31 -84 115 -49 115 8 0 39 -9 69 -20z m-86 -62
c23 -23 12 -31 -34 -24 -26 3 -65 1 -86 -5 -66 -17 -55 -2 14 20 75 24 90 25
106 9z m268 -64 c-5 -18 -2 -32 10 -45 23 -25 9 -37 -16 -14 -19 18 -20 17
-20 -4 0 -33 -18 -61 -40 -61 -10 0 -34 18 -51 40 -37 46 -64 53 -57 16 5 -23
4 -23 -28 -10 -46 19 -107 17 -195 -6 -79 -21 -121 -25 -79 -9 14 6 95 29 180
51 85 22 175 46 200 53 25 7 58 14 74 14 26 1 28 -1 22 -25z m432 -96 c27 -27
-2 -100 -53 -134 -56 -37 -270 -85 -440 -99 -90 -8 -91 -8 -215 -65 -58 -27
-117 -52 -132 -56 -24 -5 -28 -3 -28 16 0 20 -4 22 -31 16 -17 -3 -42 -6 -55
-6 -19 0 -24 -5 -24 -24 0 -33 -31 -41 -75 -20 -60 28 -87 90 -45 101 30 8 24
23 -10 23 -54 0 -77 -38 -82 -135 l-3 -50 -22 42 c-28 52 -29 93 -3 126 20 25
94 58 159 71 30 5 33 4 28 -15 -13 -48 104 -112 140 -77 12 12 10 16 -12 28
-29 15 -32 28 -9 37 11 4 8 10 -17 25 -17 11 -28 23 -23 27 5 4 55 17 110 29
56 13 160 40 232 62 123 37 299 75 387 83 98 9 211 7 223 -5z m253 -116 c14
-12 20 -25 16 -35 -5 -15 -10 -13 -31 8 -14 14 -30 25 -36 25 -5 0 -10 5 -10
10 0 16 36 11 61 -8z m-339 -124 c15 -27 15 -180 0 -218 -7 -19 -6 -28 7 -37
13 -9 16 -32 17 -120 0 -59 4 -116 9 -126 4 -10 5 -42 3 -72 -4 -41 -1 -55 9
-55 7 0 13 -11 13 -25 0 -18 -7 -28 -25 -35 -14 -5 -25 -17 -25 -27 0 -10 -3
-29 -6 -43 -6 -22 -3 -20 17 9 36 52 45 49 58 -21 16 -85 70 -277 86 -308 12
-23 11 -27 -11 -47 -29 -26 -30 -40 -4 -48 26 -8 70 -55 70 -75 1 -13 2 -13
13 1 11 14 17 10 53 -30 22 -25 57 -74 78 -109 21 -35 63 -90 94 -123 30 -33
56 -70 57 -83 4 -36 19 -58 75 -110 52 -49 176 -114 258 -136 28 -7 55 -24 75
-46 49 -57 123 -94 185 -94 29 0 51 -4 48 -9 -11 -18 11 -28 149 -66 55 -16
58 -18 40 -31 -40 -29 -170 -5 -338 63 -114 46 -182 50 -240 14 -43 -26 -58
-24 -27 4 11 10 20 22 20 28 0 5 -18 -7 -40 -27 -22 -20 -44 -36 -50 -36 -5 0
-24 18 -42 41 -28 35 -37 40 -63 36 -29 -4 -85 16 -85 31 0 5 5 13 12 20 9 9
8 12 -7 12 -17 0 -17 1 -2 18 29 32 19 39 -61 44 -108 8 -181 42 -182 86 0 13
39 16 78 6 20 -6 21 -8 6 -19 -10 -6 -14 -17 -11 -22 11 -17 99 -34 130 -25
l29 8 -84 79 c-88 86 -148 121 -353 211 -119 52 -176 85 -156 92 7 2 50 -14
95 -37 92 -46 98 -47 116 -26 29 35 -27 118 -90 135 -21 6 -63 29 -92 53 l-53
42 39 6 c77 13 78 56 3 138 -54 60 -61 62 -37 9 24 -53 27 -86 6 -69 -8 7 -18
25 -21 41 -7 30 -56 80 -80 80 -7 0 -15 -14 -19 -31 -6 -30 -26 -32 -26 -2 0
12 -7 14 -29 10 -38 -8 -52 9 -62 76 -7 46 -14 57 -64 102 -62 56 -70 74 -24
50 39 -21 73 -16 77 10 3 21 -53 105 -70 105 -6 0 -26 -14 -45 -30 -46 -41
-57 -31 -50 46 6 61 6 63 -13 51 -16 -9 -20 -23 -20 -65 0 -51 -1 -52 -25 -46
-40 10 -30 -11 38 -76 34 -33 55 -58 46 -55 -9 4 -24 -1 -33 -10 -28 -28 -49
-14 -74 53 -20 51 -31 66 -58 80 -33 15 -33 16 -16 35 16 19 15 21 -30 61
l-48 42 38 37 c21 20 43 37 49 37 12 0 53 -47 53 -61 0 -5 -7 -9 -15 -9 -10 0
-15 -10 -15 -33 0 -37 24 -77 46 -77 18 0 20 116 2 155 -15 34 -75 65 -111 58
-24 -5 -29 -1 -42 31 -16 38 -13 56 10 56 7 0 16 11 19 24 6 25 48 46 91 46
13 0 30 10 38 24 15 22 14 27 -9 70 -14 26 -24 57 -22 69 3 19 11 23 64 28 67
6 129 40 120 65 -4 11 5 14 40 14 38 0 46 4 54 24 9 24 9 24 62 10 76 -20 88
-18 53 10 l-30 24 55 15 c30 9 75 19 100 22 25 4 52 11 60 16 27 15 59 10 72
-13z m-1012 -156 c0 -13 -12 -22 -22 -16 -10 6 -1 24 13 24 5 0 9 -4 9 -8z
m326 -87 c19 -15 19 -15 -5 -36 -26 -21 -72 -23 -79 -1 -2 7 7 12 25 13 25 0
24 2 -17 19 l-45 19 51 0 c30 1 58 -5 70 -14z m-171 -45 c0 -8 -7 -16 -15 -17
-22 -4 -44 13 -35 26 10 17 50 9 50 -9z m58 -37 c-7 -2 -19 -2 -25 0 -7 3 -2
5 12 5 14 0 19 -2 13 -5z m-43 -23 c0 -5 -4 -10 -10 -10 -5 0 -10 5 -10 10 0
6 5 10 10 10 6 0 10 -4 10 -10z m-22 -76 c12 -4 22 -10 22 -15 0 -14 -34 -10
-56 6 -21 16 -8 20 34 9z m-118 -86 c0 -13 -17 -9 -30 7 -6 8 -8 20 -4 26 5 9
11 7 21 -6 7 -11 13 -22 13 -27z m114 26 c20 -20 20 -24 -1 -24 -26 0 -47 16
-39 29 10 15 22 14 40 -5z m-9 -54 c8 -13 -5 -13 -25 0 -13 8 -13 10 2 10 9 0
20 -4 23 -10z m-46 -132 c25 -59 37 -113 22 -104 -6 4 -11 3 -11 -3 0 -5 4
-12 9 -16 5 -3 19 -36 31 -73 13 -37 32 -83 43 -102 l20 -35 -28 25 c-15 14
-48 68 -72 120 -25 52 -58 123 -75 157 -39 78 -32 105 10 39 36 -56 38 -56 17
4 -8 23 -15 50 -15 58 0 22 24 -13 49 -70z m178 -64 c-3 -3 -12 -4 -19 -1 -8
3 -5 6 6 6 11 1 17 -2 13 -5z m43 -74 c0 -5 -9 -10 -20 -10 -11 0 -20 5 -20
10 0 6 9 10 20 10 11 0 20 -4 20 -10z m170 -16 c0 -8 -4 -12 -10 -9 -5 3 -10
10 -10 16 0 5 5 9 10 9 6 0 10 -7 10 -16z m88 -86 c5 -7 15 -38 21 -69 8 -37
21 -64 37 -80 14 -13 32 -36 40 -51 13 -25 13 -28 -2 -28 -8 0 -64 24 -124 52
-77 38 -112 61 -124 81 -34 59 -13 71 63 37 63 -29 84 -27 79 8 -3 15 -9 35
-13 45 -8 20 8 23 23 5z m-385 -148 c21 -47 63 -115 93 -152 30 -37 60 -79 66
-95 7 -15 27 -40 44 -55 17 -15 38 -46 48 -70 37 -92 52 -113 89 -133 21 -11
50 -40 67 -67 18 -29 39 -50 55 -54 14 -3 25 -12 25 -18 0 -17 71 -83 99 -91
25 -8 101 -72 101 -86 0 -12 -43 -11 -77 2 -15 5 -53 34 -83 63 -30 29 -77 70
-104 92 -55 43 -148 163 -186 239 -14 28 -28 52 -31 55 -3 3 -47 66 -96 141
-94 139 -139 221 -173 312 l-20 52 21 -25 c12 -14 40 -63 62 -110z m227 -10
c0 -5 -5 -10 -11 -10 -5 0 -7 5 -4 10 3 6 8 10 11 10 2 0 4 -4 4 -10z m14
-106 c9 -8 16 -18 16 -20 0 -7 -38 15 -45 26 -10 16 12 12 29 -6z m416 6 c8
-5 11 -12 8 -16 -10 -9 -38 3 -38 16 0 12 10 13 30 0z m-146 -26 c77 -21 85
-29 47 -42 -36 -13 -38 -19 -13 -38 16 -12 15 -13 -8 -14 -25 -1 -25 -1 8 -28
18 -15 32 -32 32 -38 0 -6 11 -21 25 -34 14 -13 25 -30 25 -39 0 -8 10 -26 23
-39 22 -24 22 -24 1 -18 -12 4 -57 26 -100 51 -44 24 -92 51 -108 60 -16 8
-26 18 -23 21 3 3 15 0 27 -6 43 -23 40 -4 -5 30 -34 26 -42 36 -30 38 14 3
12 9 -12 34 -27 29 -27 31 -5 25 17 -4 22 -1 20 11 -2 11 3 16 14 14 12 -2 16
2 12 13 -8 19 -4 19 70 -1z m-183 -44 c31 -25 12 -26 -21 0 -14 11 -20 20 -14
20 7 0 22 -9 35 -20z m-81 -60 c0 -15 -5 -12 -26 11 -19 22 -19 22 4 10 12 -6
22 -16 22 -21z m316 -208 c-10 -2 -22 0 -28 6 -6 6 0 7 19 4 21 -5 23 -7 9
-10z m191 -14 c28 -10 46 -28 28 -28 -12 0 -75 29 -75 34 0 9 10 7 47 -6z
m-112 -8 c19 -8 19 -9 -2 -9 -12 -1 -25 4 -28 9 -7 12 2 12 30 0z m45 -52 c36
-12 71 -27 79 -34 12 -11 10 -15 -13 -24 -41 -15 -78 -12 -141 12 -59 22 -88
54 -64 69 17 11 53 5 139 -23z m177 -25 c73 -35 76 -38 46 -41 -33 -3 -71 13
-110 47 -22 18 -29 31 -18 31 2 0 40 -17 82 -37z m106 13 c38 -13 65 -26 60
-29 -12 -7 -105 11 -117 23 -6 6 -18 10 -28 10 -10 0 -18 5 -18 10 0 16 30 12
103 -14z m457 -56 c0 -5 -4 -10 -10 -10 -5 0 -10 5 -10 10 0 6 5 10 10 10 6 0
10 -4 10 -10z m-461 -55 c9 -10 -41 -5 -60 5 -34 19 -20 31 18 15 20 -9 39
-18 42 -20z m-304 15 c3 -6 -1 -7 -9 -4 -18 7 -21 14 -7 14 6 0 13 -4 16 -10z
m845 -26 c0 -2 -7 -4 -15 -4 -8 0 -15 4 -15 10 0 5 7 7 15 4 8 -4 15 -8 15
-10z m-547 -70 c17 -10 27 -19 20 -21 -16 -6 -103 33 -103 46 0 12 28 3 83
-25z m47 16 c0 -5 -7 -7 -15 -4 -8 4 -15 8 -15 10 0 2 7 4 15 4 8 0 15 -4 15
-10z m-160 -20 c0 -5 -7 -7 -15 -4 -8 4 -15 8 -15 10 0 2 7 4 15 4 8 0 15 -4
15 -10z m1685 -60 c3 -5 1 -10 -4 -10 -6 0 -11 5 -11 10 0 6 2 10 4 10 3 0 8
-4 11 -10z m-1712 -31 c-6 -6 -17 -8 -24 -3 -9 5 -8 9 7 14 23 9 31 3 17 -11z
m170 4 c-7 -2 -19 -2 -25 0 -7 3 -2 5 12 5 14 0 19 -2 13 -5z m97 -23 c0 -5
-9 -10 -19 -10 -11 0 -23 5 -26 10 -4 6 5 10 19 10 14 0 26 -4 26 -10z m200
-20 c-20 -13 -50 -13 -50 0 0 6 15 10 33 10 24 0 28 -3 17 -10z m1100 -10 c0
-5 -7 -10 -16 -10 -8 0 -12 5 -9 10 3 6 10 10 16 10 5 0 9 -4 9 -10z m-1137
-37 c-7 -2 -19 -2 -25 0 -7 3 -2 5 12 5 14 0 19 -2 13 -5z m-332 -57 c46 -24
163 -75 259 -114 244 -98 308 -107 787 -115 90 -1 147 -7 154 -14 17 -17 -121
-27 -291 -20 -163 7 -518 57 -621 87 -149 45 -442 180 -425 197 3 3 33 -10 68
-30 71 -39 188 -90 194 -84 2 2 -42 27 -98 54 -113 56 -153 82 -127 83 8 0 53
-20 100 -44z m59 24 c0 -5 -7 -10 -15 -10 -8 0 -15 5 -15 10 0 6 7 10 15 10 8
0 15 -4 15 -10z m788 -54 c2 -16 -4 -36 -14 -47 -21 -23 -34 -24 -34 -4 0 18
-21 20 -38 3 -16 -16 -29 -1 -16 20 14 23 75 63 88 59 6 -2 12 -16 14 -31z
m-103 4 c-3 -5 -11 -10 -16 -10 -6 0 -7 5 -4 10 3 6 11 10 16 10 6 0 7 -4 4
-10z m195 -9 c0 -11 -49 -51 -62 -51 -19 0 -2 35 22 47 30 15 40 16 40 4z
m633 -3 c53 -7 97 -15 97 -19 0 -17 -49 -20 -183 -14 -139 8 -141 8 -118 26
28 22 68 24 204 7z m182 -18 c-3 -5 -11 -10 -16 -10 -6 0 -7 5 -4 10 3 6 11
10 16 10 6 0 7 -4 4 -10z m390 1 c-10 -9 -110 -17 -150 -12 -17 3 -17 4 5 11
35 11 156 12 145 1z m-1925 -21 c0 -5 -7 -7 -15 -4 -8 4 -15 8 -15 10 0 2 7 4
15 4 8 0 15 -4 15 -10z m777 -17 c-9 -9 -20 -13 -24 -9 -4 4 1 14 11 22 25 18
35 8 13 -13z m-425 -5 c-7 -7 -12 -8 -12 -2 0 14 12 26 19 19 2 -3 -1 -11 -7
-17z m352 -2 c-3 -9 -16 -16 -28 -16 -21 1 -21 1 3 21 26 22 35 20 25 -5z
m-524 -21 c118 -25 150 -35 150 -45 0 -6 -5 -10 -10 -10 -31 0 -165 33 -204
51 -46 20 -62 35 -28 26 9 -3 51 -13 92 -22z m680 10 c-7 -8 -18 -15 -24 -15
-6 0 -2 7 8 15 25 19 32 19 16 0z m-50 -4 c0 -12 -20 -25 -27 -18 -7 7 6 27
18 27 5 0 9 -4 9 -9z m110 2 c-1 -13 -51 -45 -58 -38 -4 4 4 15 17 26 24 20
41 25 41 12z m145 -133 c-3 -5 -10 -10 -16 -10 -5 0 -9 5 -9 10 0 6 7 10 16
10 8 0 12 -4 9 -10z"/>
<path d="M1796 4225 c-13 -34 -6 -55 20 -61 38 -10 53 10 34 44 -18 31 -45 40
-54 17z"/>
<path d="M1900 4198 c-23 -25 -19 -38 5 -14 9 9 23 16 31 16 8 0 14 5 14 10 0
18 -29 11 -50 -12z"/>
<path d="M1503 4149 c-42 -12 -58 -35 -17 -24 16 4 49 8 74 10 73 3 80 4 80
15 0 12 -93 12 -137 -1z"/>
<path d="M1352 4073 c2 -12 14 -19 36 -21 35 -4 43 12 13 28 -30 16 -53 12
-49 -7z"/>
<path d="M1288 4034 c-15 -15 -13 -18 30 -40 55 -28 62 -29 62 -10 0 14 -54
66 -69 66 -4 0 -14 -7 -23 -16z"/>
<path d="M1924 3855 c-16 -38 -19 -112 -5 -134 5 -8 16 -11 24 -8 17 7 50 98
45 124 -3 11 -11 -1 -21 -32 l-16 -50 5 68 c6 76 -7 90 -32 32z"/>
<path d="M1517 3712 c1 -8 3 -24 3 -36 0 -16 12 -29 40 -45 22 -12 40 -18 40
-12 0 5 -4 12 -10 16 -5 3 -7 12 -4 19 3 8 -9 22 -30 35 -19 12 -36 25 -39 29
-2 4 -2 1 0 -6z"/>
<path d="M1590 3715 c0 -8 5 -15 10 -15 6 0 10 7 10 15 0 8 -4 15 -10 15 -5 0
-10 -7 -10 -15z"/>
<path d="M1484 3611 c4 -6 13 -11 20 -11 8 0 35 -9 61 -21 59 -26 71 -18 13 9
-57 27 -103 39 -94 23z"/>
<path d="M1440 3591 c0 -22 40 -52 93 -70 73 -25 71 -10 -4 41 -52 36 -89 48
-89 29z"/>
<path d="M1890 3591 c0 -6 4 -13 10 -16 6 -3 7 1 4 9 -7 18 -14 21 -14 7z"/>
<path d="M1386 3556 c12 -31 98 -84 109 -66 6 9 -30 37 -82 64 -27 13 -32 14
-27 2z"/>
<path d="M1384 3507 c22 -36 15 -44 -18 -22 -38 25 -32 5 12 -38 42 -42 68
-47 77 -17 7 23 -18 70 -37 70 -6 0 -21 8 -32 18 -20 17 -20 17 -2 -11z"/>
<path d="M1520 3429 c7 -11 14 -19 16 -16 7 7 -7 37 -17 37 -6 0 -5 -9 1 -21z"/>
<path d="M1782 3410 c0 -14 2 -19 5 -12 2 6 2 18 0 25 -3 6 -5 1 -5 -13z"/>
<path d="M1856 3414 c-3 -9 -6 -39 -6 -67 0 -40 6 -62 25 -90 14 -20 30 -37
35 -37 15 0 24 51 13 69 -6 9 -8 30 -6 47 4 25 1 32 -16 37 -13 3 -21 13 -21
25 0 26 -16 37 -24 16z"/>
<path d="M1972 3405 c0 -16 2 -22 5 -12 2 9 2 23 0 30 -3 6 -5 -1 -5 -18z"/>
<path d="M2002 3390 c0 -19 2 -27 5 -17 2 9 2 25 0 35 -3 9 -5 1 -5 -18z"/>
<path d="M1581 3389 c-1 -29 38 -143 58 -169 16 -20 22 -22 35 -11 8 7 21 11
28 9 7 -3 18 6 25 20 12 22 10 28 -16 61 -40 50 -91 97 -91 84 0 -6 9 -32 20
-57 29 -68 9 -56 -27 17 -18 34 -32 55 -32 46z"/>
<path d="M1487 3345 c-4 -8 -2 -17 3 -20 6 -4 10 3 10 14 0 25 -6 27 -13 6z"/>
<path d="M1555 3319 c-4 -6 0 -18 9 -27 15 -15 16 -15 16 5 0 25 -15 38 -25
22z"/>
<path d="M2051 3154 c0 -11 3 -14 6 -6 3 7 2 16 -1 19 -3 4 -6 -2 -5 -13z"/>
<path d="M1705 3010 c3 -5 8 -10 11 -10 2 0 4 5 4 10 0 6 -5 10 -11 10 -5 0
-7 -4 -4 -10z"/>
<path d="M2098 2973 c-3 -4 -1 -23 4 -40 11 -44 33 -44 24 -1 -7 35 -21 55
-28 41z"/>
<path d="M2162 2780 c0 -14 2 -19 5 -12 2 6 2 18 0 25 -3 6 -5 1 -5 -13z"/>
<path d="M2260 2663 c0 -5 7 -18 15 -29 12 -16 14 -16 15 -3 0 9 -7 22 -15 29
-8 7 -15 8 -15 3z"/>
<path d="M2350 2531 c0 -19 26 -64 49 -85 24 -22 28 -8 7 32 -17 33 -56 70
-56 53z"/>
<path d="M1758 1418 c-109 -55 -120 -74 -63 -101 71 -34 70 -26 73 -463 2
-216 -1 -407 -5 -426 -7 -24 -20 -39 -46 -53 -27 -14 -37 -26 -35 -40 3 -19 9
-20 173 -17 94 2 174 8 179 12 17 17 -3 38 -44 45 -23 4 -53 17 -68 30 l-27
23 -2 511 c-1 281 -5 515 -8 521 -10 16 -24 11 -127 -42z"/>
<path d="M3605 1416 c-55 -29 -100 -58 -100 -65 0 -7 20 -22 45 -35 33 -16 48
-31 57 -57 13 -37 17 -793 4 -839 -4 -15 -22 -33 -44 -45 -39 -21 -53 -43 -39
-57 5 -5 85 -6 186 -2 149 6 176 9 174 22 -4 19 -24 29 -70 37 -21 3 -44 12
-51 20 -18 17 -30 127 -18 159 11 27 79 73 90 60 5 -5 31 -43 59 -85 59 -89
155 -205 180 -218 27 -13 222 2 232 19 16 26 -8 50 -48 50 -53 0 -119 44 -187
127 -75 90 -135 181 -135 203 0 41 190 160 256 160 37 0 69 22 62 42 -5 12
-40 16 -184 21 -180 6 -200 3 -187 -29 3 -8 20 -16 39 -20 56 -10 62 -29 22
-67 -82 -77 -179 -149 -193 -143 -13 4 -15 61 -17 398 -3 340 -5 393 -18 395
-8 1 -60 -22 -115 -51z"/>
<path d="M790 1376 c-19 -19 -10 -36 30 -56 77 -39 75 -27 78 -455 3 -450 2
-458 -71 -493 -47 -22 -57 -35 -36 -47 8 -5 282 -9 395 -5 10 0 14 8 12 23 -3
19 -13 24 -68 35 -37 7 -70 20 -77 29 -10 12 -13 72 -13 215 l0 198 89 0 c134
0 147 -7 185 -102 15 -37 43 -51 51 -25 2 6 6 80 8 164 5 131 3 152 -10 157
-23 9 -43 -12 -43 -44 0 -15 -8 -37 -17 -49 -16 -19 -31 -22 -141 -28 l-122
-6 2 204 3 204 147 3 c176 3 195 -3 233 -79 26 -50 49 -69 64 -53 5 5 12 55
15 112 l7 102 -283 -6 c-156 -3 -316 -2 -355 3 -48 6 -76 6 -83 -1z"/>
<path d="M2418 950 c-65 -11 -180 -66 -214 -101 -24 -25 -26 -33 -18 -57 8
-22 16 -28 46 -30 49 -4 73 10 105 61 14 23 31 45 37 49 16 11 75 9 98 -3 45
-24 67 -159 31 -192 -10 -8 -58 -25 -108 -37 -102 -24 -199 -72 -229 -113 -29
-39 -29 -115 0 -153 41 -55 70 -69 142 -68 39 0 83 8 105 17 115 52 103 50
137 17 21 -20 41 -30 61 -30 31 0 148 55 151 71 5 31 0 34 -57 39 l-60 5 -5
220 c-4 189 -8 225 -23 248 -33 50 -110 72 -199 57z m86 -346 c13 -5 16 -23
16 -90 0 -79 -1 -84 -26 -101 -33 -21 -142 -30 -172 -14 -12 6 -27 29 -33 52
-11 35 -10 43 8 67 26 36 74 63 137 78 28 7 52 13 53 13 1 1 8 -2 17 -5z"/>
<path d="M3082 950 c-122 -25 -190 -116 -163 -218 17 -63 44 -87 170 -151 66
-34 129 -73 140 -87 66 -85 -36 -151 -174 -113 -28 8 -56 28 -93 67 -36 39
-55 53 -63 45 -5 -5 -9 -42 -7 -84 l3 -73 45 -14 c27 -9 91 -15 160 -16 105
-1 120 1 165 25 81 41 117 117 95 198 -18 67 -52 96 -185 160 -156 75 -185
112 -130 166 20 21 34 25 82 25 67 0 106 -19 149 -74 29 -36 61 -47 69 -23 3
7 -1 42 -8 77 -12 61 -15 66 -47 76 -51 17 -159 24 -208 14z"/>
</g>
</svg>
