<?xml version="1.0" standalone="no"?>
<!DOCTYPE svg PUBLIC "-//W3C//DTD SVG 20010904//EN"
 "http://www.w3.org/TR/2001/REC-SVG-20010904/DTD/svg10.dtd">
<svg version="1.0" xmlns="http://www.w3.org/2000/svg"
 width="800.000000pt" height="500.000000pt" viewBox="0 0 800.000000 500.000000"
 preserveAspectRatio="xMidYMid meet">

<g transform="translate(0.000000,500.000000) scale(0.100000,-0.100000)"
fill="#000000" stroke="none">
<path d="M3929 4490 c-205 -23 -393 -96 -488 -189 -78 -76 -84 -97 -89 -313
l-4 -188 361 0 361 0 0 -45 0 -44 -592 -3 c-589 -3 -593 -3 -634 -25 -63 -34
-97 -67 -143 -136 -135 -208 -177 -572 -100 -876 27 -108 97 -246 156 -305 79
-80 98 -86 320 -86 l192 0 3 228 3 227 30 58 c32 64 131 164 193 196 83 42
104 44 552 50 l435 6 58 27 c114 53 206 177 227 304 6 32 10 223 10 424 0 345
-2 367 -21 410 -71 158 -324 270 -639 284 -63 2 -149 1 -191 -4z m-162 -284
c37 -41 48 -73 39 -120 -12 -65 -75 -116 -142 -116 -36 0 -97 36 -117 69 -32
55 -26 121 16 167 57 63 146 63 204 0z"/>
<path d="M2720 720 l0 -250 55 0 55 0 0 89 0 88 83 5 c138 9 187 51 187 160 0
52 -4 62 -35 97 -45 49 -90 61 -234 61 l-111 0 0 -250z m255 145 c33 -32 34
-86 3 -115 -17 -16 -35 -20 -85 -20 l-63 0 0 80 0 80 60 0 c51 0 65 -4 85 -25z"/>
<path d="M3200 817 l80 -154 0 -96 0 -97 55 0 55 0 0 92 0 92 81 158 80 158
-56 0 -56 0 -30 -67 c-17 -38 -40 -88 -51 -113 l-20 -45 -54 113 -53 112 -55
0 -56 0 80 -153z"/>
<path d="M3570 930 l0 -40 75 0 75 0 0 -210 0 -210 55 0 55 0 0 210 0 210 75
0 75 0 0 40 0 40 -205 0 -205 0 0 -40z"/>
<path d="M4030 720 l0 -250 55 0 55 0 0 110 0 110 100 0 100 0 0 -110 0 -110
50 0 50 0 0 250 0 250 -50 0 -50 0 0 -100 0 -100 -100 0 -100 0 0 100 0 100
-55 0 -55 0 0 -250z"/>
<path d="M4647 955 c-48 -17 -82 -48 -110 -100 -18 -33 -22 -57 -22 -140 0
-84 4 -107 22 -141 68 -128 227 -152 329 -50 49 48 64 93 64 192 0 93 -22 154
-70 198 -60 54 -137 69 -213 41z m125 -76 c70 -37 79 -249 13 -315 -33 -33
-84 -32 -123 1 -73 62 -65 276 12 314 28 13 73 13 98 0z"/>
<path d="M5000 720 l0 -250 55 0 55 0 0 162 0 163 98 -162 97 -162 53 -1 52 0
0 250 0 250 -50 0 -50 0 0 -162 c-1 -190 11 -192 -117 20 l-86 142 -53 0 -54
0 0 -250z"/>
</g>
</svg>
