<?xml version="1.0" standalone="no"?>
<!DOCTYPE svg PUBLIC "-//W3C//DTD SVG 20010904//EN"
 "http://www.w3.org/TR/2001/REC-SVG-20010904/DTD/svg10.dtd">
<svg version="1.0" xmlns="http://www.w3.org/2000/svg"
 width="1023.000000pt" height="369.000000pt" viewBox="0 0 1023.000000 369.000000"
 preserveAspectRatio="xMidYMid meet">

<g transform="translate(0.000000,369.000000) scale(0.100000,-0.100000)"
fill="#000000" stroke="none">
<path d="M1833 2560 c-285 -30 -541 -253 -613 -536 -27 -104 -27 -254 0 -358
63 -247 262 -447 514 -516 79 -22 236 -30 308 -15 254 51 472 236 553 472 68
197 47 426 -57 601 -48 81 -152 188 -236 243 -77 51 -196 95 -277 104 -100 11
-121 12 -192 5z m277 -580 c74 0 120 -4 120 -10 0 -6 -80 -169 -177 -363
l-178 -352 -3 227 -2 227 -123 3 c-67 2 -122 7 -121 11 1 5 82 165 180 357
l179 349 3 -225 2 -224 120 0z"/>
<path d="M7843 2468 l-73 -10 0 -614 0 -614 85 0 85 0 0 228 0 229 158 6 c236
9 361 48 449 139 69 71 88 124 88 253 0 98 -3 116 -27 167 -50 108 -156 181
-310 212 -87 18 -333 20 -455 4z m452 -152 c61 -19 126 -72 150 -123 25 -52
24 -155 -2 -214 -43 -97 -136 -135 -358 -145 l-145 -7 0 251 c0 230 1 251 18
256 36 11 287 -2 337 -18z"/>
<path d="M3220 1850 l0 -620 85 0 85 0 0 285 0 285 260 0 260 0 0 70 0 70
-260 0 -260 0 0 195 0 195 290 0 290 0 0 70 0 70 -375 0 -375 0 0 -620z"/>
<path d="M6906 2408 c-126 -284 -233 -544 -340 -830 -69 -185 -126 -339 -126
-342 0 -4 39 -5 86 -4 l86 3 56 158 56 157 285 0 286 0 56 -158 56 -157 93 -3
c85 -3 92 -1 85 15 -3 10 -40 109 -81 221 -135 365 -311 796 -385 945 l-29 57
-79 0 -78 0 -27 -62z m163 -262 c77 -189 171 -436 171 -452 0 -12 -37 -14
-229 -14 -127 0 -232 3 -234 8 -10 17 216 582 233 582 4 0 31 -56 59 -124z"/>
<path d="M8870 1850 l0 -620 80 0 80 0 0 620 0 620 -80 0 -80 0 0 -620z"/>
<path d="M5920 2439 c-25 -5 -55 -12 -68 -15 l-23 -5 3 -497 c3 -445 5 -502
21 -543 24 -63 69 -113 123 -140 65 -31 213 -38 304 -14 103 27 100 23 82 98
l-15 64 -53 -18 c-70 -25 -177 -25 -224 -1 -19 9 -43 33 -55 52 -19 33 -20 55
-23 323 l-3 287 175 0 176 0 0 65 0 65 -175 0 -175 0 0 145 c0 110 -3 145 -12
144 -7 -1 -33 -5 -58 -10z"/>
<path d="M4208 2165 c-80 -16 -90 -21 -84 -43 2 -10 7 -38 11 -63 l6 -46 57
14 c31 7 100 15 152 16 85 1 100 -1 139 -23 73 -41 100 -96 101 -204 l0 -48
-32 6 c-240 49 -458 -23 -517 -171 -18 -45 -16 -172 4 -219 65 -157 223 -201
570 -159 66 8 124 15 128 15 5 0 7 156 5 348 -3 327 -5 350 -25 400 -33 81
-66 117 -140 154 -64 31 -74 33 -188 35 -72 1 -147 -3 -187 -12z m370 -519 c9
-5 12 -48 12 -151 l0 -144 -56 -7 c-31 -3 -95 -4 -143 -2 -147 9 -201 52 -201
162 0 47 4 60 30 90 47 53 95 66 230 63 63 -2 121 -6 128 -11z"/>
<path d="M5165 2160 c-73 -23 -136 -74 -164 -133 -23 -47 -29 -155 -11 -201
18 -47 86 -111 152 -140 290 -132 308 -146 308 -226 0 -42 -4 -52 -31 -74 -42
-36 -68 -41 -194 -40 -85 1 -123 6 -169 23 -33 11 -61 19 -64 17 -2 -3 -10
-32 -17 -66 l-13 -61 27 -10 c106 -41 313 -53 419 -25 153 41 221 139 201 294
-14 109 -72 160 -272 239 -84 33 -133 59 -159 84 -34 32 -38 41 -38 87 0 44 4
53 30 76 17 14 50 31 73 37 51 14 175 6 236 -16 24 -8 47 -15 51 -15 12 0 33
121 23 131 -16 16 -163 39 -246 38 -52 0 -104 -7 -142 -19z"/>
</g>
</svg>
